HIERARCHY
ROOT root
{
	OFFSET 0.000000 0.000000 0.000000
	CHANNELS 6 Xposition Yposition Zposition Zrotation Yrotation Xrotation
	JOINT lhip
	{
		OFFSET 0.058581 -0.082280 -0.017664
		CHANNELS 3 Zrotation Yrotation Xrotation
		JOINT lknee
		{
			OFFSET 0.043451 -0.386469 0.008037
			CHANNELS 3 Zrotation Yrotation Xrotation
			JOINT lankle
			{
				OFFSET -0.014790 -0.426874 -0.037428
				CHANNELS 3 Zrotation Yrotation Xrotation
				JOINT ltoe
				{
					OFFSET 0.041054 -0.060286 0.122042
					CHANNELS 3 Zrotation Yrotation Xrotation
					End Site
					{
						OFFSET 0.000000 0.000000 0.000000
					}
				}
			}
		}
	}
	JOINT rhip
	{
		OFFSET -0.060310 -0.090513 -0.013543
		CHANNELS 3 Zrotation Yrotation Xrotation
		JOINT rknee
		{
			OFFSET -0.043257 -0.383688 -0.004843
			CHANNELS 3 Zrotation Yrotation Xrotation
			JOINT rankle
			{
				OFFSET 0.019056 -0.420046 -0.034562
				CHANNELS 3 Zrotation Yrotation Xrotation
				JOINT rtoe
				{
					OFFSET -0.034840 -0.062106 0.130323
					CHANNELS 3 Zrotation Yrotation Xrotation
					End Site
					{
						OFFSET 0.000000 0.000000 0.000000
					}
				}
			}
		}
	}
	JOINT lowerback
	{
		OFFSET 0.004439 0.124404 -0.038385
		CHANNELS 3 Zrotation Yrotation Xrotation
		JOINT upperback
		{
			OFFSET 0.004488 0.137956 0.026820
			CHANNELS 3 Zrotation Yrotation Xrotation
			JOINT chest
			{
				OFFSET -0.002265 0.056032 0.002855
				CHANNELS 3 Zrotation Yrotation Xrotation
				JOINT lowerneck
				{
					OFFSET -0.013390 0.211636 -0.033468
					CHANNELS 3 Zrotation Yrotation Xrotation
					JOINT upperneck
					{
						OFFSET 0.010113 0.088937 0.050410
						CHANNELS 3 Zrotation Yrotation Xrotation
						End Site
						{
							OFFSET 0.000000 0.000000 0.000000
						}
					}
				}
				JOINT lclavicle
				{
					OFFSET 0.071702 0.114000 -0.018898
					CHANNELS 3 Zrotation Yrotation Xrotation
					JOINT lshoulder
					{
						OFFSET 0.122921 0.045205 -0.019046
						CHANNELS 3 Zrotation Yrotation Xrotation
						JOINT lelbow
						{
							OFFSET 0.255332 -0.015649 -0.022946
							CHANNELS 3 Zrotation Yrotation Xrotation
							JOINT lwrist
							{
								OFFSET 0.265709 0.012698 -0.007375
								CHANNELS 3 Zrotation Yrotation Xrotation
								End Site
								{
									OFFSET 0.000000 0.000000 0.000000
								}
							}
						}
					}
				}
				JOINT rclavicle
				{
					OFFSET -0.082954 0.112472 -0.023707
					CHANNELS 3 Zrotation Yrotation Xrotation
					JOINT rshoulder
					{
						OFFSET -0.113228 0.046853 -0.008472
						CHANNELS 3 Zrotation Yrotation Xrotation
						JOINT relbow
						{
							OFFSET -0.260127 -0.014369 -0.031269
							CHANNELS 3 Zrotation Yrotation Xrotation
							JOINT rwrist
							{
								OFFSET -0.269108 0.006794 -0.006027
								CHANNELS 3 Zrotation Yrotation Xrotation
								End Site
								{
									OFFSET 0.000000 0.000000 0.000000
								}
							}
						}
					}
				}
			}
		}
	}
}
MOTION
Frames: 17
Frame Time: 0.033333
0.136428 0.758512 0.956383 78.574339 0.508655 88.747011 8.517416 2.040244 -33.772732 -3.538360 13.525300 15.587858 4.006038 12.181998 -2.414241 0.000000 -0.000000 0.000000 -8.823214 -3.323160 27.814190 3.591402 13.804454 6.638289 7.939034 5.132380 -15.817438 0.000000 -0.000000 0.000000 -1.210897 14.984126 -1.585776 3.035651 -1.617626 10.638424 -0.342555 3.664438 -3.624401 5.217410 -8.859402 0.794392 0.776836 -9.767564 -7.398042 -17.422614 18.195721 2.486957 -57.336337 20.817165 12.802325 3.583828 -33.170485 19.671532 -12.038357 -11.979753 -2.677495 21.905448 2.818620 1.586091 49.070233 19.020429 12.027402 -4.143711 48.961837 -10.909414 0.292192 15.029143 -18.152700 
0.190548 0.766368 0.954643 79.154144 -0.732123 90.065616 8.252212 0.829471 -36.174352 -4.463164 15.372245 22.822397 5.041103 12.548998 1.491053 0.000000 -0.000000 0.000000 -10.419019 -2.547970 26.325282 3.547229 12.366010 12.394018 9.186525 5.078218 -9.546385 0.000000 -0.000000 0.000000 -3.055502 15.349239 -3.306883 2.806769 -1.416241 10.342718 -0.665491 3.511512 -3.701399 5.717003 -9.590799 0.970665 1.536252 -10.429063 -7.196320 -16.849955 17.826885 2.447876 -57.563012 20.691025 13.463767 5.229950 -31.764104 19.447324 -12.168129 -11.792001 -3.405874 22.465203 1.803241 1.193594 50.729641 16.311364 12.575065 -5.274355 48.925690 -12.273628 1.051377 14.609506 -18.097384 
0.240604 0.776422 0.957451 80.167573 -2.357895 91.151822 6.838211 -1.830692 -36.939439 -5.427052 16.746427 27.661011 8.526251 12.535307 -1.503295 0.000000 -0.000000 0.000000 -12.294973 -1.943821 21.993638 4.111678 9.678021 23.538108 10.876032 4.357646 0.207621 0.000000 -0.000000 0.000000 -5.188819 15.079456 -3.848814 2.857123 -1.066646 9.675514 -1.022807 3.286810 -3.861406 6.203346 -10.535152 0.666557 1.777846 -10.959475 -6.740647 -16.863188 17.538969 1.299833 -57.391962 19.785139 15.339924 6.161735 -30.658233 19.408301 -11.466655 -12.127472 -3.294627 23.224364 0.411241 0.453460 51.631043 12.997170 13.706948 -5.474753 48.358273 -12.603364 0.570061 14.711030 -18.553827 
0.285997 0.787163 0.962550 80.911041 -3.856078 91.207208 4.333739 -4.121397 -35.414046 -5.350375 16.662655 30.216208 10.812336 13.893965 -5.371155 0.000000 -0.000000 0.000000 -13.831979 -1.183004 16.026524 4.493841 5.694446 37.123684 8.576244 0.474308 6.822452 0.000000 -0.000000 0.000000 -6.372835 13.932163 -2.737908 2.648377 -0.280195 9.072352 -1.237763 3.243634 -3.372731 6.436826 -10.667322 0.041058 1.342720 -11.273232 -6.838812 -17.078724 16.298535 0.164723 -58.835469 18.118168 15.946409 7.546766 -30.886951 16.731944 -11.003188 -12.270273 -4.000029 23.212500 0.370803 -0.382893 52.221882 9.993641 14.430007 -5.081046 47.157578 -11.829808 1.605069 14.288346 -18.266801 
0.328760 0.796561 0.969570 80.739506 -4.362077 91.104855 2.434656 -4.819066 -32.458250 -5.580781 16.118799 30.670671 12.186200 15.325221 -8.773942 0.000000 -0.000000 0.000000 -14.066384 -1.318554 8.519232 1.723226 3.022229 50.465726 5.666018 -5.243922 8.446151 0.000000 -0.000000 0.000000 -6.350537 12.342030 -0.641005 2.446194 0.547776 7.659490 -1.371036 3.386190 -2.782794 6.106502 -10.473823 -0.426049 1.126836 -10.891202 -7.025681 -17.559558 15.402923 -1.059063 -60.204664 16.608931 16.025583 7.680956 -32.578125 14.174714 -9.929863 -12.157080 -4.980675 23.140542 0.284419 -1.390690 52.586655 7.312055 15.209899 -3.753983 45.763928 -8.455328 1.996312 14.249117 -18.275916 
0.370762 0.803959 0.979591 81.233569 -4.479614 90.211056 0.201731 -4.657149 -27.645032 -6.050428 14.048834 28.893920 11.420109 16.581216 -10.791008 0.000000 -0.000000 0.000000 -13.241335 -1.402709 2.321507 -0.509166 1.921445 59.879067 2.938778 -8.921496 3.284994 0.000000 -0.000000 0.000000 -5.771149 10.430013 2.062671 2.216161 0.626245 6.588250 -1.200760 3.260486 -2.407820 4.929955 -10.656337 0.075421 1.450761 -9.514031 -7.925526 -18.391441 14.240362 -1.035898 -61.402773 13.767508 15.875271 7.067317 -35.123661 11.230281 -7.293760 -12.184155 -6.332494 22.635881 0.296056 -1.168403 53.323134 5.521801 15.673520 -3.648703 44.312614 -6.127834 0.640317 14.037482 -18.901155 
0.411935 0.810124 0.991683 82.762122 -4.075866 89.795116 -1.586103 -4.428797 -23.062793 -6.399235 10.871336 26.343185 11.433537 17.845935 -11.925126 0.000000 -0.000000 0.000000 -11.242639 -1.180956 -3.661460 -1.163657 1.177631 65.071385 2.049876 -10.316303 -0.478822 0.000000 -0.000000 0.000000 -4.979038 8.198371 3.500238 2.400070 0.165891 6.323749 -1.051404 2.741844 -2.268006 3.305635 -10.937367 1.095469 2.507920 -7.999096 -9.072579 -19.675011 12.172130 -0.950089 -61.764355 10.573721 15.995359 6.141050 -37.777096 8.552334 -5.041409 -12.028356 -6.273650 22.389946 -0.267382 -1.364963 53.909054 3.051335 15.324503 -3.949614 43.104345 -4.511781 -0.729254 13.999983 -18.840379 
0.452703 0.814538 1.004776 85.371158 -3.512891 89.152401 -2.933080 -3.977756 -17.821032 -6.698582 7.211050 23.079388 10.541738 18.173843 -12.852859 0.000000 -0.000000 0.000000 -9.205136 -1.036422 -8.070486 0.073069 -0.013077 65.777160 1.191996 -10.101483 -6.667552 0.000000 -0.000000 0.000000 -4.221819 5.885104 4.285152 2.640997 -0.756133 6.591200 -0.676733 1.797213 -1.875517 1.864775 -10.653718 2.001102 3.770247 -6.723298 -9.727248 -20.539504 9.288258 -0.372459 -61.686293 6.189385 16.500656 5.106439 -39.270033 7.403553 -3.307273 -13.215277 -4.601621 22.127108 -0.732715 -1.383887 54.768415 0.487840 13.971540 -5.111729 41.939341 -4.677311 -0.787842 13.865328 -17.285134 
0.493300 0.818490 1.017557 88.242185 -2.895144 88.366486 -3.925564 -3.131287 -12.075240 -6.765947 2.995160 19.181545 9.161352 18.450841 -13.686743 0.000000 -0.000000 0.000000 -7.648850 -0.836315 -11.987718 0.890193 -1.945230 63.404582 1.722361 -10.945391 -10.445587 0.000000 -0.000000 0.000000 -3.492782 3.416648 5.151000 2.897141 -1.642245 6.733255 -0.395582 0.819274 -1.794046 0.670375 -10.362200 2.994301 4.808698 -5.981276 -9.681858 -21.016069 6.549741 -0.188451 -61.191131 2.043471 17.501499 4.600312 -40.794015 6.295115 -4.267465 -13.423123 -2.884426 21.628177 -1.155567 -1.843101 55.654023 -3.163476 13.019891 -6.829759 40.562679 -4.823020 0.079847 13.734481 -17.378166 
0.533068 0.821494 1.028442 91.131232 -2.081309 87.802620 -4.464111 -1.911853 -6.669084 -5.936112 -1.315574 15.504522 7.564539 18.396457 -14.309012 0.000000 -0.000000 0.000000 -6.266807 -0.337879 -15.657635 0.985757 -4.074646 58.465376 1.086856 -12.853468 -11.671596 0.000000 -0.000000 0.000000 -2.597466 0.757231 5.969982 3.220797 -2.460378 6.447052 -0.211383 -0.214427 -1.778116 -0.864353 -10.071932 3.633336 5.750453 -5.049052 -9.267704 -21.563182 4.299791 0.367944 -59.520601 -2.454245 18.562358 3.487796 -41.737177 7.074542 -6.306900 -13.301331 -2.643431 20.593125 -2.404766 -2.386457 56.689994 -6.018090 11.456660 -7.361525 39.310253 -5.478934 0.431546 13.366590 -17.265060 
0.573682 0.823729 1.035919 93.749079 -1.343871 87.250137 -4.477608 -0.923264 -1.212545 -5.040768 -4.908482 11.763267 5.632845 18.599329 -15.126530 0.000000 -0.000000 0.000000 -5.466759 -0.603289 -18.574330 0.463136 -5.894848 51.706031 0.933796 -14.216183 -13.135319 0.000000 -0.000000 0.000000 -1.891621 -1.593438 6.422282 3.402014 -3.299711 6.068133 -0.033438 -1.140917 -1.283144 -1.669478 -9.378207 3.789283 6.400256 -4.364670 -8.765882 -21.560849 2.356272 0.323613 -58.172412 -7.198492 19.339140 2.762145 -41.997500 7.160929 -3.250921 -14.954057 -1.162046 19.645167 -3.367486 -3.174994 57.092280 -8.939188 10.262963 -6.548032 37.843206 -4.854441 -0.010875 13.304944 -16.988425 
0.613780 0.825260 1.039594 96.194629 -0.910068 86.795574 -4.062883 0.253378 3.525620 -4.399831 -7.550512 8.982504 3.749240 17.881346 -16.272030 0.000000 -0.000000 0.000000 -5.113265 -1.113745 -20.680976 0.263023 -6.881007 43.328056 0.401857 -15.096718 -14.160841 0.000000 -0.000000 0.000000 -1.605286 -3.308651 6.646600 3.523773 -4.203677 6.225676 0.235539 -2.288452 -1.314410 -2.283092 -8.465273 4.118444 6.880022 -4.131380 -8.488857 -21.518889 -0.076290 0.497614 -56.900488 -11.159191 19.676534 3.923814 -41.862621 4.009510 -5.114588 -15.296158 0.371419 19.047035 -3.891626 -3.683952 57.024290 -12.201050 9.615354 -7.119447 36.959452 -5.339797 3.173187 13.345936 -16.861898 
0.653315 0.826203 1.038084 98.664623 -0.576567 86.594113 -3.152991 1.424651 7.608594 -3.790216 -10.289234 6.633738 2.262699 17.108432 -17.803294 0.000000 -0.000000 0.000000 -5.069149 -1.296345 -22.532802 0.673422 -6.826602 34.072277 0.263546 -16.267169 -13.315329 0.000000 -0.000000 0.000000 -1.612780 -4.899579 7.142396 3.831398 -5.089059 5.571050 0.602643 -3.271588 -0.895359 -2.914301 -8.098758 3.741947 7.269884 -3.582149 -7.889167 -21.433094 -2.348518 0.549501 -54.785901 -14.971433 20.157868 3.547014 -41.510639 3.209557 -2.973191 -16.222030 0.615221 18.237003 -4.832463 -4.533889 56.167930 -15.491529 9.262118 -5.906591 36.666376 -3.178648 3.559441 13.354803 -17.573226 
0.693881 0.826704 1.032798 101.041223 -0.509058 86.314083 -1.790351 3.005677 11.551743 -3.631199 -12.429867 4.756759 1.170114 15.450660 -19.793812 0.000000 -0.000000 0.000000 -5.524267 -2.270973 -23.911888 1.596004 -5.626779 24.797802 1.113584 -15.362706 -13.330989 0.000000 -0.000000 0.000000 -1.877676 -6.282966 7.300321 3.977330 -6.198700 5.319823 0.832057 -4.300311 -0.398829 -3.379327 -7.279871 3.693968 7.792523 -3.333869 -7.700265 -21.126585 -4.173553 0.671531 -52.978802 -18.473627 19.584203 4.384393 -41.035932 1.803739 -2.608607 -17.076911 2.108405 17.762249 -5.739569 -4.918769 55.537154 -17.269355 7.583685 -5.385925 35.903562 -2.560759 4.196142 14.179236 -14.637524 
0.735402 0.827019 1.023357 102.585248 -1.131105 86.402729 -0.883103 4.608960 15.307989 -3.484279 -14.263814 2.698152 0.165410 14.519527 -21.159450 0.000000 -0.000000 0.000000 -6.663079 -3.148211 -25.257890 2.433725 -2.996475 15.547231 1.613687 -13.281479 -13.383378 0.000000 -0.000000 0.000000 -2.574474 -7.143663 6.765546 3.917690 -7.191675 5.811734 0.787587 -5.298851 -0.497721 -3.721993 -6.258877 3.999494 8.231266 -3.071965 -8.020023 -20.744262 -5.338753 1.255993 -50.649596 -21.738281 18.677212 4.663329 -41.001622 -0.418002 -1.299681 -17.723173 2.218034 17.357796 -6.853743 -4.855983 55.318270 -18.597866 6.530380 -5.792552 35.359811 -3.052268 4.081626 14.698241 -14.000207 
0.778733 0.826543 1.011766 103.866087 -1.635945 86.793665 0.526053 5.977448 18.664717 -3.495939 -15.865767 0.959534 -0.841840 13.403158 -22.903402 0.000000 -0.000000 0.000000 -7.689380 -3.697486 -26.680370 2.110510 -0.293226 7.583826 2.023558 -11.470338 -13.367253 0.000000 -0.000000 0.000000 -2.962892 -8.059748 5.567911 3.865258 -8.145139 6.286431 0.561346 -5.920160 -0.281754 -4.803320 -5.850449 4.831115 9.144914 -1.894722 -9.112535 -20.921619 -6.599031 1.794363 -47.811006 -24.164123 17.848765 5.160799 -41.019570 -2.758688 0.436712 -18.091593 1.408858 16.872582 -8.117333 -5.163869 54.749700 -20.212679 5.768212 -5.162106 34.932705 -2.376993 3.485133 14.891176 -15.076130 
0.823418 0.824984 0.999378 105.499098 -2.068317 87.084812 2.470411 7.142712 21.623679 -3.809263 -17.733236 0.426630 -2.347043 12.317100 -24.499997 0.000000 -0.000000 0.000000 -8.627224 -4.420842 -28.049313 1.084492 -0.013051 2.262936 2.508325 -11.848294 -13.381714 0.000000 -0.000000 0.000000 -3.273761 -9.318778 4.819110 3.680683 -8.966693 6.693596 0.430019 -6.617345 -0.401748 -5.374716 -5.455795 4.978599 9.782978 -1.262039 -9.636791 -21.632146 -7.559626 2.695813 -44.618018 -26.319404 15.814383 5.750863 -40.828582 -4.801680 -1.193858 -18.417004 3.468881 16.695101 -8.961749 -5.137616 54.554012 -21.449067 3.601187 -5.294698 34.382018 -2.802158 6.059095 14.552618 -13.716129 
